<svg width="120" height="32" viewBox="0 0 120 32" fill="none" xmlns="http://www.w3.org/2000/svg">
<g id="Logo">
<path id="path314" d="M2.37109 30.4004V3.48957H8.92637V30.4004H2.37109Z" fill="black"/>
<path id="path316" d="M15.6879 27.6772C13.7072 25.6845 12.7168 23.0261 12.7168 19.7037C12.7168 16.3818 13.7072 13.7303 15.6879 11.7489C17.6681 9.76934 20.2306 8.7784 23.3742 8.7784C25.9809 8.7784 28.191 9.42427 30.006 10.7143C31.8204 12.0049 33.0214 13.8523 33.6093 16.2536H26.5178C25.9043 14.9766 24.9009 14.337 23.5081 14.337C22.1148 14.337 21.0802 14.8296 20.4031 15.8126C19.7254 16.7967 19.3872 18.0941 19.3872 19.7037C19.3872 21.3138 19.7254 22.6112 20.4031 23.5954C21.0802 24.5795 22.0705 25.071 23.3742 25.071C24.1915 25.071 24.8311 24.9302 25.2908 24.6493C25.7505 24.3684 26.1592 23.8695 26.5178 23.1538H33.6093C33.0214 25.4541 31.808 27.2816 29.9674 28.6352C28.1274 29.991 25.9299 30.667 23.3742 30.667C20.2306 30.667 17.6681 29.6709 15.6879 27.6772Z" fill="black"/>
<path id="path318" d="M49.7504 23.6907C50.6187 22.7713 51.0541 21.4421 51.0541 19.7037C51.0541 17.9664 50.6063 16.6435 49.7124 15.736C48.8168 14.8296 47.7572 14.375 46.5301 14.375C45.3037 14.375 44.2492 14.8296 43.3678 15.736C42.4858 16.6435 42.0454 17.9664 42.0454 19.7037C42.0454 21.4421 42.4983 22.7713 43.4058 23.6907C44.3127 24.6107 45.3803 25.071 46.6068 25.071C47.8338 25.071 48.8809 24.6107 49.7504 23.6907ZM38.614 27.6391C36.4545 25.6204 35.375 22.9625 35.375 19.6657C35.375 16.3688 36.4482 13.7303 38.5953 11.7489C40.7417 9.76934 43.3995 8.7784 46.5687 8.7784C49.7373 8.7784 52.3889 9.76934 54.5235 11.7489C56.6569 13.7303 57.7239 16.3688 57.7239 19.6657C57.7239 22.9625 56.6631 25.6204 54.5422 27.6391C52.4207 29.6585 49.7754 30.667 46.6068 30.667C43.4376 30.667 40.7735 29.6585 38.614 27.6391Z" fill="black"/>
<path id="path320" d="M68.1118 9.01011V12.1532C69.466 9.90455 71.6255 8.77968 74.5904 8.77968C77.0439 8.77968 79.0308 9.59751 80.5519 11.2332C82.0718 12.8694 82.8323 15.0925 82.8323 17.903V30.4004H76.3157V18.7855C76.3157 17.4053 75.9513 16.3377 75.2232 15.584C74.4944 14.8309 73.491 14.4529 72.214 14.4529C70.9354 14.4529 69.9325 14.8309 69.2043 15.584C68.4762 16.3377 68.1118 17.4053 68.1118 18.7855V30.4004H61.5566V9.01011H68.1118Z" fill="black"/>
<path id="path322" d="M88.0046 30.4004V9.01011H94.5598V30.4004H88.0046ZM93.9849 6.59462C93.2431 7.3364 92.3361 7.70645 91.2629 7.70645C90.1897 7.70645 89.2822 7.3364 88.5409 6.59462C87.7997 5.85397 87.4297 4.93965 87.4297 3.85336C87.4297 2.76765 87.7997 1.8539 88.5409 1.11325C89.2822 0.37203 90.1897 0.00143051 91.2629 0.00143051C92.3361 0.00143051 93.2431 0.37203 93.9849 1.11325C94.7255 1.8539 95.0967 2.76765 95.0967 3.85336C95.0967 4.93965 94.7255 5.85397 93.9849 6.59462Z" fill="black"/>
<path id="path324" d="M101.332 27.6772C99.3517 25.6845 98.3613 23.0261 98.3613 19.7037C98.3613 16.3818 99.3517 13.7303 101.332 11.7489C103.313 9.76934 105.875 8.7784 109.019 8.7784C111.625 8.7784 113.836 9.42427 115.651 10.7143C117.465 12.0049 118.666 13.8523 119.254 16.2536H112.162C111.549 14.9766 110.545 14.337 109.153 14.337C107.759 14.337 106.725 14.8296 106.048 15.8126C105.37 16.7967 105.032 18.0941 105.032 19.7037C105.032 21.3138 105.37 22.6112 106.048 23.5954C106.725 24.5795 107.715 25.071 109.019 25.071C109.836 25.071 110.476 24.9302 110.935 24.6493C111.395 24.3684 111.804 23.8695 112.162 23.1538H119.254C118.666 25.4541 117.452 27.2816 115.612 28.6352C113.772 29.991 111.574 30.667 109.019 30.667C105.875 30.667 103.313 29.6709 101.332 27.6772Z" fill="black"/>
</g>
</svg>
