<svg width="120" height="32" viewBox="0 0 120 32" fill="none" xmlns="http://www.w3.org/2000/svg">
<path d="M2.37109 30.4004V3.48957H8.92637V30.4004H2.37109Z" fill="#E0E6EB"/>
<path d="M15.6899 27.6772C13.7091 25.6845 12.7188 23.0261 12.7188 19.7037C12.7188 16.3818 13.7091 13.7303 15.6899 11.7489C17.67 9.76934 20.2325 8.7784 23.3762 8.7784C25.9829 8.7784 28.1929 9.42427 30.0079 10.7143C31.8224 12.0049 33.0233 13.8523 33.6113 16.2536H26.5198C25.9063 14.9766 24.9029 14.337 23.5101 14.337C22.1168 14.337 21.0821 14.8296 20.405 15.8126C19.7274 16.7967 19.3891 18.0941 19.3891 19.7037C19.3891 21.3138 19.7274 22.6112 20.405 23.5954C21.0821 24.5795 22.0725 25.071 23.3762 25.071C24.1934 25.071 24.833 24.9302 25.2928 24.6493C25.7525 24.3684 26.1611 23.8695 26.5198 23.1538H33.6113C33.0233 25.4541 31.8099 27.2816 29.9694 28.6352C28.1294 29.991 25.9318 30.667 23.3762 30.667C20.2325 30.667 17.67 29.6709 15.6899 27.6772Z" fill="#E0E6EB"/>
<path d="M49.7504 23.6907C50.6187 22.7713 51.0541 21.4421 51.0541 19.7037C51.0541 17.9664 50.6063 16.6435 49.7124 15.736C48.8168 14.8296 47.7572 14.375 46.5301 14.375C45.3037 14.375 44.2492 14.8296 43.3678 15.736C42.4858 16.6435 42.0454 17.9664 42.0454 19.7037C42.0454 21.4421 42.4983 22.7713 43.4058 23.6907C44.3127 24.6107 45.3803 25.071 46.6068 25.071C47.8338 25.071 48.8809 24.6107 49.7504 23.6907ZM38.614 27.6391C36.4545 25.6204 35.375 22.9625 35.375 19.6657C35.375 16.3688 36.4482 13.7303 38.5953 11.7489C40.7417 9.76934 43.3995 8.7784 46.5687 8.7784C49.7373 8.7784 52.3889 9.76934 54.5235 11.7489C56.6569 13.7303 57.7239 16.3688 57.7239 19.6657C57.7239 22.9625 56.6631 25.6204 54.5422 27.6391C52.4207 29.6585 49.7754 30.667 46.6068 30.667C43.4376 30.667 40.7735 29.6585 38.614 27.6391Z" fill="#E0E6EB"/>
<path d="M68.1099 9.01011V12.1532C69.464 9.90455 71.6235 8.77968 74.5884 8.77968C77.0419 8.77968 79.0289 9.59751 80.5499 11.2332C82.0698 12.8694 82.8303 15.0925 82.8303 17.903V30.4004H76.3138V18.7855C76.3138 17.4053 75.9494 16.3377 75.2212 15.584C74.4925 14.8309 73.4891 14.4529 72.2121 14.4529C70.9334 14.4529 69.9305 14.8309 69.2024 15.584C68.4742 16.3377 68.1099 17.4053 68.1099 18.7855V30.4004H61.5547V9.01011H68.1099Z" fill="#E0E6EB"/>
<path d="M88.0046 30.4004V9.01011H94.5598V30.4004H88.0046ZM93.9849 6.59462C93.2431 7.3364 92.3361 7.70645 91.2629 7.70645C90.1897 7.70645 89.2822 7.3364 88.5409 6.59462C87.7997 5.85397 87.4297 4.93965 87.4297 3.85336C87.4297 2.76765 87.7997 1.8539 88.5409 1.11325C89.2822 0.37203 90.1897 0.00143051 91.2629 0.00143051C92.3361 0.00143051 93.2431 0.37203 93.9849 1.11325C94.7255 1.8539 95.0967 2.76765 95.0967 3.85336C95.0967 4.93965 94.7255 5.85397 93.9849 6.59462Z" fill="#E0E6EB"/>
<path d="M101.33 27.6772C99.3498 25.6845 98.3594 23.0261 98.3594 19.7037C98.3594 16.3818 99.3498 13.7303 101.33 11.7489C103.311 9.76934 105.873 8.7784 109.017 8.7784C111.624 8.7784 113.834 9.42427 115.649 10.7143C117.463 12.0049 118.664 13.8523 119.252 16.2536H112.16C111.547 14.9766 110.543 14.337 109.151 14.337C107.757 14.337 106.723 14.8296 106.046 15.8126C105.368 16.7967 105.03 18.0941 105.03 19.7037C105.03 21.3138 105.368 22.6112 106.046 23.5954C106.723 24.5795 107.713 25.071 109.017 25.071C109.834 25.071 110.474 24.9302 110.933 24.6493C111.393 24.3684 111.802 23.8695 112.16 23.1538H119.252C118.664 25.4541 117.451 27.2816 115.61 28.6352C113.77 29.991 111.572 30.667 109.017 30.667C105.873 30.667 103.311 29.6709 101.33 27.6772Z" fill="#E0E6EB"/>
</svg>
